<?xml version="1.0" encoding="UTF-8" standalone="no"?> <svg width="48" height="48" viewBox="0 0 48 48" fill="none" xmlns="http://www.w3.org/2000/svg">
<path d="M36 14.389V9C36 8.20435 35.6839 7.44129 35.1213 6.87868C34.5587 6.31607 33.7956 6 33 6H31.605C31.013 5.99792 30.4338 6.17197 29.941 6.5L26.483 8.8C23.3645 10.887 19.6964 12.0008 15.944 12H7C5.6744 12.0016 4.40356 12.5289 3.46622 13.4662C2.52888 14.4036 2.00159 15.6744 2 17V25C2.00159 26.3256 2.52888 27.5964 3.46622 28.5338C4.40356 29.4711 5.6744 29.9984 7 30H9V39C9 39.7957 9.31607 40.5587 9.87868 41.1213C10.4413 41.6839 11.2044 42 12 42H13C13.7956 42 14.5587 41.6839 15.1213 41.1213C15.6839 40.5587 16 39.7957 16 39V30C19.7322 30.0069 23.3792 31.1163 26.483 33.189L29.94 35.489C30.4332 35.8169 31.0127 35.9909 31.605 35.989H33C33.7956 35.989 34.5587 35.6729 35.1213 35.1103C35.6839 34.5477 36 33.7847 36 32.989V27.611C37.2066 26.979 38.2172 26.0289 38.9223 24.8635C39.6274 23.6982 40.0002 22.3621 40.0002 21C40.0002 19.6379 39.6274 18.3018 38.9223 17.1365C38.2172 15.9711 37.2066 15.021 36 14.389V14.389ZM4 25V17C4 16.2044 4.31607 15.4413 4.87868 14.8787C5.44129 14.3161 6.20435 14 7 14H11V28H7C6.20435 28 5.44129 27.6839 4.87868 27.1213C4.31607 26.5587 4 25.7957 4 25V25ZM13 40H12C11.7348 40 11.4804 39.8946 11.2929 39.7071C11.1054 39.5196 11 39.2652 11 39V30H14V39C14 39.2652 13.8946 39.5196 13.7071 39.7071C13.5196 39.8946 13.2652 40 13 40ZM34 33C34 33.2652 33.8946 33.5196 33.7071 33.7071C33.5196 33.8946 33.2652 34 33 34H31.605C31.4078 34.0002 31.2149 33.9417 31.051 33.832L27.593 31.532C24.1455 29.227 20.0911 27.9977 15.944 28H13V14H15.944C20.0906 14.0038 24.1449 12.7763 27.593 10.473L31.052 8.167C31.2159 8.05815 31.4083 8.00006 31.605 8H33C33.2652 8 33.5196 8.10536 33.7071 8.2929C33.8946 8.48043 34 8.73479 34 9V33ZM36 25.243V16.757C36.6256 17.273 37.1294 17.921 37.4753 18.6545C37.8211 19.3881 38.0004 20.189 38.0004 21C38.0004 21.811 37.8211 22.6119 37.4753 23.3455C37.1294 24.079 36.6256 24.727 36 25.243V25.243Z" fill="black"/>
<path d="M46 20H43C42.7348 20 42.4804 20.1054 42.2929 20.2929C42.1054 20.4804 42 20.7348 42 21C42 21.2652 42.1054 21.5196 42.2929 21.7071C42.4804 21.8946 42.7348 22 43 22H46C46.2652 22 46.5196 21.8946 46.7071 21.7071C46.8946 21.5196 47 21.2652 47 21C47 20.7348 46.8946 20.4804 46.7071 20.2929C46.5196 20.1054 46.2652 20 46 20Z" fill="black"/>
<path d="M41.6 16.75C41.7756 16.7504 41.9481 16.7041 42.1 16.616L44.7 15.116C44.8146 15.0508 44.9153 14.9636 44.9961 14.8594C45.0769 14.7552 45.1363 14.636 45.1708 14.5087C45.2054 14.3814 45.2144 14.2486 45.1974 14.1178C45.1804 13.987 45.1377 13.8609 45.0718 13.7467C45.0058 13.6325 44.9179 13.5324 44.8132 13.4523C44.7084 13.3722 44.5888 13.3136 44.4613 13.2799C44.3338 13.2462 44.2009 13.238 44.0703 13.2559C43.9396 13.2738 43.8138 13.3173 43.7 13.384L41.1 14.884C40.9094 14.9941 40.7604 15.164 40.6762 15.3673C40.5919 15.5707 40.5771 15.7962 40.6341 16.0088C40.6911 16.2215 40.8166 16.4093 40.9913 16.5433C41.1659 16.6774 41.3799 16.75 41.6 16.75Z" fill="black"/>
<path d="M44.691 26.884L42.091 25.384C41.8614 25.2535 41.5896 25.2191 41.3347 25.2882C41.0799 25.3574 40.8628 25.5246 40.7307 25.7533C40.5987 25.982 40.5625 26.2536 40.63 26.5089C40.6975 26.7642 40.8632 26.9824 41.091 27.116L43.691 28.616C43.8048 28.6827 43.9306 28.7262 44.0613 28.7441C44.1919 28.762 44.3248 28.7538 44.4523 28.7201C44.5798 28.6864 44.6994 28.6278 44.8042 28.5477C44.9089 28.4676 44.9968 28.3675 45.0628 28.2533C45.1287 28.1391 45.1714 28.013 45.1884 27.8822C45.2054 27.7514 45.1964 27.6186 45.1618 27.4913C45.1273 27.364 45.0679 27.2448 44.9871 27.1406C44.9063 27.0364 44.8056 26.9492 44.691 26.884V26.884Z" fill="black"/>
</svg>
